<svg width="24" height="24" viewBox="0 0 24 24" fill="none" xmlns="http://www.w3.org/2000/svg">
  <!-- Human figure (left) - simplified bust -->
  <circle cx="6" cy="5.5" r="2.5" fill="currentColor"/>
  <path d="M6 8.5C3 8.5 2 10.5 2 12V15H10V12C10 10.5 9 8.5 6 8.5Z" fill="currentColor"/>
  
  <!-- Robot head (right) - simplified -->
  <rect x="14" y="6" width="8" height="6" rx="1.5" fill="currentColor"/>
  <rect x="17" y="3.5" width="2" height="3" rx="1" fill="currentColor"/>
  <circle cx="16.5" cy="9" r="1.2" fill="var(--vscode-sideBar-background, #252526)"/>
  <circle cx="19.5" cy="9" r="1.2" fill="var(--vscode-sideBar-background, #252526)"/>
  
  <!-- Bidirectional arrows (loop) -->
  <path d="M10.5 4C11.5 2.5 13 2.5 14 4" stroke="currentColor" stroke-width="1.5" stroke-linecap="round" fill="none"/>
  <path d="M14 4L12.8 3M14 4L13.2 5.2" stroke="currentColor" stroke-width="1.3" stroke-linecap="round"/>
  
  <path d="M14 18C13 19.5 11.5 19.5 10.5 18" stroke="currentColor" stroke-width="1.5" stroke-linecap="round" fill="none"/>
  <path d="M10.5 18L11.7 19M10.5 18L11.3 16.8" stroke="currentColor" stroke-width="1.3" stroke-linecap="round"/>
</svg>
